<?xml version="1.0" standalone="no"?><!DOCTYPE svg PUBLIC "-//W3C//DTD SVG 1.1//EN" "http://www.w3.org/Graphics/SVG/1.1/DTD/svg11.dtd"><svg t="1587785137015" class="icon" viewBox="0 0 1024 1024" version="1.1" xmlns="http://www.w3.org/2000/svg" p-id="23139" xmlns:xlink="http://www.w3.org/1999/xlink" width="200" height="200"><defs><style type="text/css"></style></defs><path d="M903.542857 256.8c6.857143 6.857143 10.742857 16.114286 10.742857 25.828571V987.428571c0 20.228571-16.342857 36.571429-36.571428 36.571429H146.285714c-20.228571 0-36.571429-16.342857-36.571428-36.571429V36.571429c0-20.228571 16.342857-36.571429 36.571428-36.571429h485.371429c9.714286 0 19.085714 3.885714 25.942857 10.742857l245.942857 246.057143zM829.942857 299.428571L614.857143 84.342857V299.428571h215.085714zM386.285714 554.285714c0 6.171429 5.028571 10.857143 11.2 10.857143h37.028572c6.171429 0 11.2-4.8 11.2-10.742857 0-32.228571 29.485714-58.971429 66.285714-58.971429s66.285714 26.742857 66.285714 58.857143c0 28.914286-24 53.942857-56.342857 58.171429-22.057143 3.2-39.428571 23.2-39.657143 45.828571v36.571429c0 6.285714 5.142857 11.428571 11.428572 11.428571h36.571428c6.285714 0 11.428571-5.142857 11.428572-11.428571v-13.942857c0-6.857143 4.571429-13.142857 11.085714-15.2 50.971429-16.457143 85.714286-61.714286 84.914286-113.028572-0.914286-63.428571-56.228571-115.2-124-116.114285-70.171429-0.8-127.428571 52.114286-127.428572 117.714285z m125.714286 259.428572a36.571429 36.571429 0 1 0 0-73.142857 36.571429 36.571429 0 0 0 0 73.142857z" p-id="23140"></path></svg>