<?xml version="1.0" standalone="no"?><!DOCTYPE svg PUBLIC "-//W3C//DTD SVG 1.1//EN" "http://www.w3.org/Graphics/SVG/1.1/DTD/svg11.dtd"><svg t="1579179578855" class="icon" viewBox="0 0 1303 1024" version="1.1" xmlns="http://www.w3.org/2000/svg" p-id="2226" xmlns:xlink="http://www.w3.org/1999/xlink" width="254.4921875" height="200"><defs><style type="text/css"></style></defs><path d="M1262.713949 1022.696727a40.494545 40.494545 0 0 1-35.467636-21.131636C1073.553222 726.109091 857.582313 693.527273 571.513949 691.013818v258.792727c0 16.384-9.309091 31.185455-23.924364 37.888a40.029091 40.029091 0 0 1-43.752727-6.702545L14.178676 543.278545a41.984 41.984 0 0 1-1.024-61.719272L502.719767 12.474182A40.122182 40.122182 0 0 1 546.937949 4.654545a41.890909 41.890909 0 0 1 24.576 38.353455v219.880727c128 6.516364 244.736 43.938909 347.415273 111.522909 90.298182 59.392 169.611636 141.870545 235.613091 245.201455 111.336727 174.08 146.525091 346.018909 148.014545 353.186909a41.890909 41.890909 0 0 1-25.6 47.290182 41.332364 41.332364 0 0 1-14.242909 2.606545zM101.870313 510.789818L489.873222 857.739636V649.029818c0-22.993455 18.245818-41.704727 40.866909-41.704727 174.266182 0 315.485091 9.402182 437.992727 54.923636a565.341091 565.341091 0 0 1 172.404364 100.445091c-15.918545-32.488727-34.443636-66.187636-56.040727-99.793454-135.912727-210.850909-322.280727-317.626182-554.356364-317.626182a41.239273 41.239273 0 0 1-40.866909-41.704727V139.170909L101.870313 510.789818z" p-id="2227"></path></svg>