<?xml version="1.0" standalone="no"?><!DOCTYPE svg PUBLIC "-//W3C//DTD SVG 1.1//EN" "http://www.w3.org/Graphics/SVG/1.1/DTD/svg11.dtd"><svg class="icon" width="200px" height="200.00px" viewBox="0 0 1024 1024" version="1.1" xmlns="http://www.w3.org/2000/svg"><path d="M853.333333 955.733333H170.666667c-66.030933 0-102.4-36.369067-102.4-102.4V170.666667c0-66.030933 36.369067-102.4 102.4-102.4h682.666666c66.030933 0 102.4 36.369067 102.4 102.4v682.666666c0 66.030933-36.369067 102.4-102.4 102.4zM170.666667 102.4c-47.223467 0-68.266667 21.0432-68.266667 68.266667v682.666666c0 47.223467 21.0432 68.266667 68.266667 68.266667h682.666666c47.223467 0 68.266667-21.0432 68.266667-68.266667V170.666667c0-47.223467-21.0432-68.266667-68.266667-68.266667H170.666667z"  /><path d="M768 785.066667H597.333333a17.066667 17.066667 0 1 1 0-34.133334h170.666667a17.066667 17.066667 0 1 1 0 34.133334z m-341.333333 0H256a17.066667 17.066667 0 1 1 0-34.133334h73.045333l53.282134-159.010133v-0.034133l113.476266-341.265067a17.066667 17.066667 0 1 1 32.392534 10.769067L422.161067 580.266667H626.346667a17.066667 17.066667 0 1 1 0 34.133333H410.794667l-45.738667 136.533333H426.666667a17.066667 17.066667 0 1 1 0 34.133334z"  /><path d="M656.213333 721.083733a34.133333 34.133333 0 0 1-32.375466-23.3472l-29.866667-89.6v-0.017066l-114.3296-341.282134a34.133333 34.133333 0 0 1 64.733867-21.691733l114.346666 341.333333 0.034134 0.136534 29.8496 89.514666a34.133333 34.133333 0 0 1-32.392534 44.9536z"  /><path d="M688.657067 676.369067l26.453333 81.066666-64.904533 21.162667-26.453334-81.0496z"  /></svg>